<svg xmlns="http://www.w3.org/2000/svg" viewBox="0 0 980 980" preserveAspectRatio="xMidYMid meet" xmlns:v="https://vecta.io/nano"><path d="M516.3 1.5c-6.2 1.3-32.9 9.2-56.3 16.6L447.5 22l-5.4 10.2c-10.4 19.8-18.5 30.4-26.2 34.4-4.8 2.4-13.4 2.2-18.8-.5-5.7-3-12.1-8.9-13.8-12.8-1.6-3.9-1.7-21-.2-31.9.9-6.5.8-7.9-.4-9.2-2.5-2.4-11.3 1.1-25.6 10.1C333 37.4 306.3 56.4 305.5 59c-.2.8-2 9-3.9 18.2-4.9 24-8.7 31.3-19.2 36.4-8.9 4.3-18.1 2.6-27.2-5.2-6-5.1-8.8-11.8-11.2-26.6l-2-13.3c0-.3-1.1-.5-2.4-.5-5.1 0-17.9 13.9-43.4 47.2-13.6 17.8-15 20.1-14.6 23 1.3 9.7 3.4 32.7 3.4 37.2 0 8.4-2.5 15.2-7.5 20.1-4.7 4.7-9.2 6.5-16.8 6.5-13.7 0-20.3-5.3-30.6-24.5l-6.8-12.4c-.5-.7-5.3 4.1-8.3 8.4-3.9 5.6-7.5 14.7-18.8 47l-9.8 28 6.1 13c10.2 21.4 12.8 29.1 12.2 35.3-1.4 13.4-12.1 22.4-26.8 22.4-9.6 0-13.8-2.4-26.9-14.9-10.5-10-11-10.4-11.9-8.1l-3.1 7.3c-2.9 6.7-3.9 21.1-4 54.5v26.5l13.4 15.3c14.3 16.4 18.3 22.4 19.2 29.4 1.3 9.3-4.3 18.6-14.7 24.3-4.5 2.5-6.5 3-11.9 2.9-5.8 0-7.9-.6-19.9-6.2-7.3-3.4-14-6.2-14.7-6.2-1.8 0-3.4 4.1-3.4 8.8 0 5.4 2 13 12.2 47.9l9.2 31.2 10 5.3c27.4 14.4 36.9 23.6 36.9 35.7 0 8.9-7.4 20.6-15 23.8-3.9 1.6-21 1.7-31.9.2-6.3-.9-7.9-.8-9.1.3-3.6 3.7 6.2 21.7 30.8 56.8l12.8 17.9c1.6 2.1 4.4 3 20 6.2 25.5 5.3 32.5 8.9 37.7 19.5 4.3 8.9 2.6 18.1-5.2 27.2-4.8 5.7-12 8.9-23.9 10.7-17 2.6-16.5 2.4-16.5 4.5 0 5.1 16.7 20.5 48.4 44.5l16.9 12.8 13.6-.7 25.1-1.1 11.5-.6 6 3.4c8.5 4.8 11.6 9.5 12.3 18.6 1.1 15.3-4 22.2-24.3 33l-12.4 6.8c-.3.2 1.1 1.9 3 3.9 5.3 5.5 18.7 11.5 50.9 22.7l29.5 10.3 12.5-5.9c21.4-10.2 29.7-13 35.8-12.4 13.4 1.4 22.5 12.3 22.4 26.9 0 9.5-2.4 13.8-14.9 26.8-10 10.5-10.4 11-8.1 11.9l7.3 3.1c6.9 3 25.2 4.2 56.9 3.8l25.2-.3 12.7-11.5c18.2-16.4 25.6-21 33.7-21 8 0 16.5 6 21.5 15.1 2.5 4.5 3 6.5 2.9 11.9 0 5.8-.6 7.9-6.3 20.2-3.5 7.6-6.1 14.4-5.8 15.2s2.6 1.8 5.4 2.2c6.4.9 16.6-1.4 53.2-12.4l29.2-8.8 6.6-12.4c10.7-20.4 17.7-29.2 26-32.7 4.6-1.9 13-1.9 17.6.1 4.8 1.9 12.7 9.3 14.3 13.3 1.7 3.9 1.8 20.9.3 31.9-1.4 10.2-.7 11 7.5 8.7 4-1.1 11.5-5.2 22.6-12.3 21.5-13.7 46.8-31.8 47.4-33.9.3-.9 2.1-9.1 4-18.3 4.9-24 8.7-31.3 19.2-36.4 8.9-4.3 18.1-2.6 27.2 5.2 5.7 4.8 8.9 12 10.7 23.9 2.6 17 2.4 16.5 4.5 16.5 5.2 0 20.7-16.7 44.7-48.4l13.8-18.1-.3-5c-.2-2.7-.9-10.6-1.7-17.5-1.9-16-1.9-22.4 0-28.8 3.1-10.3 11.3-16.2 22.4-16.2 14.2 0 20.6 5.1 31 24.5l6.8 12.4c.2.3 1.9-1.1 3.9-3 6.2-5.9 10.7-16.5 27.9-65.6l5.4-15.2-5.8-11.8c-3.2-6.5-7.5-16-9.6-21.2-3.2-8-3.7-10.2-3.2-14.7.7-6.5 3.5-12.2 8.2-16.2 5.4-4.8 10-6.4 18.5-6.5 10-.1 13.4 1.8 26.9 14.8l10.8 10.5 2.6-5.8c4.9-11 5.1-12.6 5.1-50.3l.1-35.5-9.9-11c-13.5-14.9-17.5-20-20.4-26.3-4.2-9-1.6-18.9 6.8-26.5 5.5-5 11.4-7.6 17.2-7.6 5.2 0 5-.1 22.5 7.8 6.7 3 12.9 5.2 13.7 4.9 2.1-.8 3-8.9 1.7-15.5-.6-3.1-5.5-20.7-10.9-39l-9.7-33.4-8.5-4.5c-30.6-16.5-38.3-23.8-38.3-36.2 0-9.2 7.7-21.1 15.6-24 3.7-1.4 22.9-1.4 31.9 0 5.9.9 7.3.9 8.5-.4 3.7-3.6-4.5-18.8-29.4-54.9-16.9-24.4-13-21.5-34.1-25.9-25.6-5.3-32.6-8.9-37.8-19.5-7.7-15.7 4.5-33.8 25.1-37.3 3.3-.6 9.3-1.5 13.3-2.2 6.6-1 7.2-1.3 7.2-3.5 0-3.1-9.6-13.3-22.5-23.9-15.5-12.7-41.9-32.1-44.6-32.8-1.3-.3-7.1-.2-12.9.3s-15.9 1.2-22.5 1.6l-12 .6-6.5-3.3c-8.9-4.7-12.1-9.4-12.8-18.8-1.1-15.3 4-22.2 24.3-33l12.4-6.8c.7-.5-4.1-5.3-8.4-8.3-5.8-4-13.4-7.1-45.9-18.5l-29-10.2-12.5 6c-16.9 8-29.3 12.7-33.4 12.7-5.1 0-12-2.7-16.4-6.5-5.6-4.7-8.6-12.1-8.5-20.7 0-9.5 2.5-13.8 14.8-26.8l10.5-10.8-5.8-2.7c-3.1-1.4-7.5-3-9.8-3.6-2.2-.6-20-1.3-39.6-1.6l-35.5-.6-13.3 11.9C563.3 60.5 556.1 65 548 65c-8 0-16.5-6-21.5-15.1-2.5-4.5-3-6.5-2.9-11.9 0-5.8.7-8 6.3-20.3 3.4-7.6 6-14.4 5.8-15.1-1.1-2.7-9.6-3.2-19.4-1.1zm-17 108.2c1.7 1.1 4.5 3.8 6.2 6.2 2.5 3.5 3 5.2 3 10s-.5 6.4-2.9 9.5c-3.9 5.2-11.1 9.6-15.6 9.6-7.6 0-19-10.6-19-17.5 0-7.8 5.8-17.8 11.3-19.4 4.5-1.4 13.2-.6 17 1.6zm10 288.9c12.2 2.4 31.1 12 43.5 22.2 10.1 8.3 22.7 29.1 27.2 45.2 2.8 9.6 3.7 28.2 2.1 38.6-5.8 35.4-31.8 64.6-66.8 75-10.9 3.2-29.7 4.4-40.6 2.4-35.5-6.3-64.3-32.3-74.8-67.5-2.6-8.8-3.7-30.6-2-39.7 10-53 59.2-86.6 111.4-76.2zm-376.5 74.3c6.9 3.6 12.2 10.7 12.2 16.6 0 5-4.1 12-9.6 16.1-3.1 2.4-4.7 2.9-9.5 2.9-4.7 0-6.5-.5-10.1-3-2.5-1.8-5.2-4.9-6.5-7.5-4.8-9.4-1.6-19.5 7.6-24.2 6.3-3.3 10.8-3.5 15.9-.9zm731.8 1.6c11.1 6.5 10.9 23.1-.3 30.9-6.3 4.3-12.5 4.6-18.4.8-12-7.7-14.4-20.4-5.5-29.1 6.7-6.5 15.8-7.5 24.2-2.6zM497 836.7c7.4 4.9 12 11.6 12 17.6 0 5.7-4.8 13.7-9.9 16.4-9.6 5-20.4 1.8-25.3-7.6-1.6-2.9-2.8-6.9-2.8-8.8 0-9 10.1-19.3 19-19.3 2.6 0 5.6.7 7 1.7z" fill="#202020"/></svg>