<svg xmlns="http://www.w3.org/2000/svg" width="400" height="397.979797979798" viewBox="0 0 400 NaN" fill-rule="evenodd" xmlns:v="https://vecta.io/nano"><path d="M0 199.005V398.01h400V0l-82.29.047-80.298.409c9.172 1.666 19.44 4.089 23.857 5.628 2.82.983 2.743 1.438-.897 5.23-9.027 9.402-11.223 18.05-6.88 27.094 6.556 13.652 27.3 20.795 47.403 16.322 27.68-6.158 57.136 11.959 76.355 46.962 3.64 6.629 3.544 7.647-.667 7.082-7.153-.959-18.092 3-22.02 7.971-11.103 14.046-2.795 36.96 18.694 51.561 6.374 4.331 11.575 9.223 14.697 13.825 11.722 17.276 14.016 45.034 6.016 72.788-2.347 8.145-2.487 8.266-5.726 4.95-23.84-24.401-52.184.931-44.35 39.633 2.615 12.918 1.38 23.256-4.087 34.229-8.423 16.905-24.03 31.982-44.373 42.871-5.43 2.906-5.43 2.906-5.726-3.667-1.465-32.555-37.722-33.285-59.354-1.194-7.627 11.316-16.213 17.868-28.564 21.801-16.75 5.332-37.714 5.002-57.938-.913-8.417-2.462-8.4-2.453-4.817-6.135 5.567-5.705 8.348-10.418 9.28-15.731 3.436-19.562-22.497-34.377-49.412-28.228-27.11 6.195-56.082-11.562-75.736-46.417-4.494-7.971-4.588-7.767 3.697-8.062 31.666-1.13 31.527-37.4-.228-59.397-8.387-5.809-12.374-9.92-16.627-17.142-8.937-15.177-11.066-40.13-5.43-63.656 3.113-12.997 4.07-14.343 7.496-10.534 16.7 18.564 39.197 9.533 44.67-17.924.913-4.583.907-14.061-.012-18.905l-1.244-6.511c-3.807-19.763 7.16-42.034 29.884-60.679 10.278-8.434 24.717-16.584 24.91-14.061.02.25.084 2.604.145 5.231.724 31.26 37.072 32.851 58.104 2.543 4.86-7.005 6.012-8.434 9.422-11.692 7.144-6.825 15.828-11.022 28.413-13.732L211.74.411c.766-.181-46.562-.347-105.174-.37L0 0v199.005m192.08-54.323c-50.874 8.274-63.733 75.1-19.44 101.034 31.985 18.728 72 .913 80.78-35.965 1.027-4.314 1.02-18.932-.01-22.686-8.05-29.324-33.497-46.909-61.33-42.383" fill-opacity="0"/><path d="M211.74.411l-5.373 1.186c-12.585 2.71-21.27 6.907-28.413 13.732-3.4 3.258-4.56 4.687-9.422 11.692-21.032 30.308-57.38 28.717-58.104-2.543l-.145-5.231c-.194-2.523-14.633 5.627-24.91 14.061C62.65 51.953 51.682 74.224 55.49 93.987l1.244 6.511c.92 4.844.925 14.322.012 18.905-5.472 27.457-27.98 36.488-44.67 17.924-3.425-3.809-4.383-2.463-7.496 10.534-5.635 23.526-3.506 48.479 5.43 63.656 4.253 7.222 8.24 11.333 16.627 17.142 31.755 21.997 31.894 58.267.228 59.397-8.285.295-8.19.091-3.697 8.062 19.654 34.855 48.625 52.612 75.736 46.417 26.915-6.149 52.848 8.666 49.412 28.228-.933 5.313-3.714 10.026-9.28 15.731-3.593 3.682-3.6 3.673 4.817 6.135 20.224 5.915 41.19 6.245 57.938.913 12.35-3.933 20.937-10.485 28.564-21.801 11.155-16.547 26.933-25.342 41.266-22.999 11.526 1.883 17.44 9.793 18.088 24.193.295 6.573.295 6.573 5.726 3.667 20.344-10.889 35.95-25.966 44.373-42.871 5.468-10.973 6.702-21.311 4.087-34.229-3.593-17.745.51-34.435 10.737-43.691 10.01-9.059 22.24-7.583 33.612 4.058 3.24 3.316 3.38 3.195 5.726-4.95 8-27.754 5.706-55.512-6.016-72.788-3.122-4.602-8.323-9.494-14.697-13.825-21.49-14.601-29.797-37.515-18.694-51.561 3.93-4.971 14.868-8.93 22.02-7.971 4.21.565 4.307-.453.667-7.082-19.22-35.003-48.676-53.12-76.355-46.962-20.102 4.473-40.847-2.67-47.403-16.322-4.343-9.044-2.147-17.692 6.88-27.094 3.64-3.792 3.717-4.245.897-5.232C255.087 3.917 237.02 0 233.22 0c-2.42 0-.95.398 3.747 1.014 5.108.67 6.614 1.093 6.614 1.859 0 .277-49.522 50.028-110.05 110.558L23.483 224.199c0 .393.536 1.019 1.19 1.392 1.184.673 1.56 1.275.8 1.275-.22 0-.72-.321-1.112-.714s-1.286-.951-1.986-1.24c-1.264-.524-6.455-5.673-6.455-6.403 0-.229.4-.205.966.058.53.242 1.382.332 1.89.202 1.475-.38 216.16-215.304 215.984-216.224-.16-.828.304-.794-8.717-.638l-4.8.083L116.9 106.499 12.215 211.581c-.205.364-.024.95.498 1.614.862 1.096 1.04 1.73.49 1.73-.182 0-.585-.487-.896-1.082s-.895-1.418-1.3-1.828c-.735-.748-3.138-5.608-3.657-7.397-.287-.991-.004-1.029 1.884-.25.805.332 201.136-200.005 201.96-201.967.473-1.125.91-1.34 4.327-2.126.438-.1.08-.185-.796-.188s-2.22.143-2.985.324m47.982 5.695c3.508 1.183 3.573 1.621.664 4.52-1.3 1.286-3.366 3.719-4.615 5.408-1.86 2.513-2.467 3.07-3.348 3.07-1.247 0-215.41 213.756-215.41 215.001 0 1.796-1.534 1.024-5.61-2.822l-2.013-1.9 1.27.186c1.367.201 222.997-220.625 224.1-223.287.57-1.377 1.32-1.403 4.96-.176M191.84 7.448c0 .383-185.89 186.335-186.75 186.812-.998.554-1.432-.535-2.095-5.264-.63-4.49-.423-5.654.772-4.334.403.446.928.811 1.165.811.753 0 134.782-134.244 135.492-135.71.51-1.053 1.142-1.562 2.66-2.147 11.675-4.498 19.234-10.514 26.332-20.958 4.423-6.508 7.315-9.875 11.362-13.226 4.502-3.727 11.062-7.276 11.062-5.984M109.93 24.576c.657 12.487 5.03 19.726 14.028 23.227 1.545.601 2.8 1.241 2.792 1.421-.04.768-68.18 68.274-68.633 67.994-.345-.214-.406-1.393-.22-4.328.292-4.623-.128-9.233-1.56-17.169-4.87-26.976 12.4-54.373 46.405-73.616 7.086-4.009 6.844-4.093 7.19 2.471m140.848 1.821c-.306.307-.43.085-.43-.778 0-1.572.56-2.134.728-.733.072.595-.063 1.275-.3 1.511m.765 8.486c0 .724 2.78 6.992 3.43 7.735.987 1.127.578 1.309-.45.201-.746-.805-1.226-1.012-1.89-.817-1.183.349-204.715 203.824-205.305 205.249-.252.609-.62 1.107-.818 1.107-.478 0-3.515-4.809-3.52-5.572-.002-.329 46.474-47.075 103.28-103.881L250.005 34.259c.453-1.369 1.537-.929 1.537.624m10.314 13.927c4.376 2.514 5 3.273 3.3 4.026-.613.271-24.438 23.912-52.946 52.535l-53.314 53.515-54.604 54.408-53.245 52.81c-.142-.142-.98-6.691-1.05-8.194-.036-.777.172-1.022.95-1.121 1.236-.157 208.557-207.254 208.557-208.331 0-.916.197-.887 2.354.352m7.2 4.324c.91.52.924.57.175.583-.45.008-1.167-.249-1.592-.57-1.042-.788.044-.798 1.417-.013m40.2 1.686c0 .386-19.75 20.446-44.776 45.479L219.7 145.754c0 1.284-1.58 1.117-6.576-.693l-1.602-.58 42.7-42.688C296.6 59.43 297.797 58.177 296.93 57.131c-.64-.773-.125-1.005 4.54-2.042 5.123-1.14 7.786-1.232 7.786-.269m18.122 1.366c1.54.436 3.24 1.133 3.78 1.549l.982.755-1.2.009c-1.525.011-95.597 93.727-95.994 95.63-.292 1.396-.347 1.389-3.152-.425-3.743-2.42-4.026-2.809-2.67-3.664 3.457-2.183 93.302-93.002 93.04-94.048-.312-1.244.202-1.225 5.205.194m-47.268-.303c3.383.606 3.57.732 2.913 1.96-.273.51-19.54 19.969-42.813 43.242l-42.317 42.316-3.523.53c-4.415.664-5.313.672-5.313.052 0-.273 19.343-19.842 42.985-43.487l42.985-44.082c0-1.289.533-1.345 5.083-.531m57.77 5.262c.67.598-1.175-.043-1.957-.68l-.995-.811 1.393.671c.767.37 1.468.739 1.56.82m5.01 2.587c3.138 2.053 5.195 3.842 4.832 4.205-.16.16-.64.074-1.064-.191s-1.087-.482-1.47-.482c-.9 0-97.83 96.893-98.467 98.429-.398.961-.36 1.341.224 2.332 1.368 2.316.314 1.477-2.586-2.058-3.95-4.814-4.34-5.569-2.875-5.569 1.848 0 97.227-95.588 97.227-97.439 0-1.646.668-1.522 4.18.773m10.096 8.081c2.75 2.036 9.492 9.229 9.057 9.664-.116.116-1.133-.522-2.26-1.419-1.938-1.542-2.104-1.6-3.103-1.072-1.467.776-103.145 102.615-103.145 103.309 0 1.2-1.133-.626-2.35-3.788-1.56-4.049-1.58-4.623-.136-4.347 1.5.287 101.82-99.829 101.35-101.146-.152-.427-.64-1.178-1.082-1.671-1.17-1.301-.45-1.098 1.668.47m13.78 14.655c4.12 4.805 12.54 18.852 12.54 20.921 0 .682-.455.771-5.074.987-32.97 1.543-33.638 38.459-1.095 60.393 18.1 12.205 25.42 29 24.756 56.884-.304 12.785-1.57 20.519-5.272 32.241-1.264 4.003-1.49 4.019-5.354.384-24.17-22.745-51.83 3.498-43.833 41.585 2.7 12.908 1.127 24.171-5.015 35.659-8.573 16.037-25.483 31.779-44.23 41.173-3.967 1.988-3.884 2.076-4.148-4.422-.663-16.309-9.6-25.227-24.366-24.29-13.83.879-26.027 9.086-36.423 24.509-15.3 22.713-47.744 30.367-84.408 19.92-8.713-2.483-8.647-2.392-4.706-6.433 6.918-7.095 9.968-14.554 8.79-21.501-2.932-17.299-26.596-27.799-50.42-22.373-19.178 4.369-39.286-3.266-56.752-21.549-3.506-3.67-3.87-4.372-2.444-4.716.74-.178 17.87-17.036 53.716-52.865l53.046-52.186c.23.23.792 1.747 1.25 3.372 9.093 32.258 46.8 48.726 77.095 33.672 19.566-9.722 30.645-28.532 30.72-52.154.01-3.443.09-3.935.54-3.341.29.383.776.697 1.08.697.695 0 106.473-105.684 107.26-107.164.77-1.452 1.04-1.394 2.746.597M11.954 137.946c4.273 4.371 9.056 7.526 13.213 8.717 1.254.359 2.397.841 2.54 1.07.364.589-24.122 25.003-25.077 25.003-2.043 0 .67-19.928 4.383-32.178 1.752-5.783 1.81-5.814 4.942-2.612m39.39-1.045c0 .431-.358.974-.796 1.208-.936.501-1.06.013-.302-1.199.63-1.007 1.098-1.011 1.098-.009m-5.174 5.772c0 .101-.354.374-.787.606-.642.343-.744.309-.554-.185.206-.537 1.34-.894 1.34-.421m165.572 2.733c21.442 5.082 35.48 19.116 41.668 41.659 2.608 9.501.387 25.83-4.94 36.326-22.46 44.243-87.672 37.366-101.034-10.655-10.814-38.864 25.223-76.594 64.307-67.33m-172.826 1.531c-.287.862-1.436 1.348-1.957.827-.37-.37-.26-.562.487-.861 1.315-.526 1.654-.518 1.47.034m-6.173 1.403c-.5.094-1.385.097-2 .005s-.205-.168.9-.171 1.59.071 1.1.166m141.984.9c0 .453-1.314 1.213-2.063 1.195-.3-.008-.12-.349.416-.797 1.022-.851 1.647-1.002 1.647-.398m52.34.412c.135.219-.023.398-.35.398s-.708-.179-.843-.398.022-.398.35-.398.707.179.843.398m-55.597 1.439c-.354.354-.885.553-1.18.443-.353-.131-.197-.342.458-.618 1.378-.579 1.457-.56.722.175m-4.646 3.35c-.983.818-1.648 1.006-1.648.464 0-.595.953-1.273 1.77-1.26.782.013.777.046-.123.796m-10.006 9.49c0 .192-.27.573-.597.845-.624.518-.928-.333-.332-.929.378-.378.93-.328.93.084m92.338 8.053c0 .696-.387.334-1.004-.939l-.627-1.294.816.94c.448.517.815 1.099.815 1.293m-97.865.469c-.325.325-.443.28-.443-.168 0-.791.535-1.326.733-.733.084.252-.047.657-.3.901m-5.85 20.172c-.444 4.191-.92 5.584-1.907 5.584-.604 0-110.1 109.523-110.1 110.127 0 .261.38 1.119.845 1.907 1.32 2.238.664 2.024-1.5-.488-3.93-4.562-5.148-6.869-3.63-6.869.27 0 26.513-26.015 58.32-57.811l58.134-57.324c.168.268.096 2.461-.16 4.874M41.313 239.284c.882.882.586 1.733-.318.915-.818-.74-1.042-1.393-.478-1.393.176 0 .534.215.796.478m9.373 34.759c-.198.518-.935.847-.935.417 0-.591.538-1.386.82-1.211.186.115.238.472.114.794m-5.313 8.53c0 .211-.372.583-.826.826-.756.405-.79.372-.384-.384.455-.849 1.2-1.125 1.2-.442M33.83 288.57c0 .576-1.063.919-1.88.605-.587-.225-.6-.316-.1-.633.787-.498 1.98-.481 1.98.028m-6.383.883c-.027.871-3.942 4.77-4.555 4.535-.71-.272-2.196-3.13-2.196-4.221 0-.753.243-.812 3.383-.812 2.45 0 3.378.138 3.368.498" fill="#eb1c24"/><path d="M215.522.268c-3.53.846-3.852 1.004-4.327 2.133C210.37 4.363 10.04 204.7 9.234 204.368c-1.888-.779-2.17-.741-1.884.25.52 1.789 2.922 6.649 3.657 7.397.404.41.988 1.233 1.3 1.828s.714 1.082.896 1.082c.552 0 .373-.634-.49-1.73-.522-.664-.703-1.25-.498-1.614.177-.315 47.28-47.602 104.675-105.082L221.243 1.99l4.8-.083c9.02-.156 8.558-.19 8.717.638.177.92-214.51 215.844-215.984 216.224-.51.13-1.36.04-1.89-.202-.576-.263-.966-.287-.966-.058 0 .73 5.19 5.879 6.455 6.403.7.289 1.594.848 1.986 1.24s.893.714 1.112.714c.762 0 .385-.602-.8-1.275-.655-.373-1.19-.999-1.19-1.392 0-.418 45.454-46.169 110.05-110.768L243.582 2.873c0-1.7-22.946-3.83-28.06-2.605m39.24 6.014C253.66 8.944 32.03 229.77 30.663 229.569l-1.27-.186 2.013 1.9c4.075 3.846 5.61 4.618 5.61 2.822 0-1.245 214.162-215.001 215.41-215.001.88 0 1.49-.557 3.348-3.07 1.25-1.689 3.325-4.122 4.615-5.408 2.91-2.899 2.844-3.337-.664-4.52-3.64-1.227-4.39-1.201-4.96.176m-67.615 2.746c-6.794 3.838-11.614 8.63-17.73 17.63-7.098 10.444-14.657 16.46-26.332 20.958-1.518.585-2.15 1.094-2.66 2.147-.7 1.466-134.74 135.71-135.492 135.71-.237 0-.762-.365-1.165-.811-1.195-1.32-1.402-.156-.772 4.334.663 4.729 1.097 5.818 2.095 5.264.86-.477 186.75-186.429 186.75-186.812 0-.696-1.64-.144-4.694 1.58M102.74 22.105c-34.005 19.243-51.275 46.64-46.405 73.616 1.432 7.936 1.852 12.546 1.56 17.169-.185 2.935-.124 4.114.22 4.328.453.28 68.592-67.226 68.633-67.994.01-.18-1.247-.82-2.792-1.421-9-3.501-13.37-10.74-14.028-23.227-.345-6.564-.103-6.48-7.19-2.471m147.907 2.003c-.164.167-.3.847-.3 1.511 0 .863.123 1.085.43.778.236-.236.37-.916.3-1.511s-.265-.945-.43-.778m-.642 10.151c-.336 1.018-26.6 27.513-103.735 104.646L42.99 242.786c.005.763 3.042 5.572 3.52 5.572.198 0 .566-.498.818-1.107.6-1.425 204.122-204.9 205.305-205.249.665-.195 1.145.012 1.89.817 1.027 1.108 1.436.926.45-.201-.65-.743-3.43-7.011-3.43-7.735 0-1.553-1.084-1.993-1.537-.624m9.497 14.199c0 1.077-207.32 208.174-208.557 208.331-.777.099-.985.344-.95 1.121.07 1.503.908 8.052 1.05 8.194.068.068 24.028-23.697 53.245-52.81l54.604-54.408 53.314-53.515 52.946-52.535c1.7-.753 1.077-1.512-3.3-4.026-2.157-1.239-2.354-1.268-2.354-.352m8.136 4.689c.425.321 1.142.578 1.592.57.75-.013.734-.063-.175-.583-1.373-.785-2.46-.775-1.417.013m33.83 1.942c-4.664 1.037-5.18 1.269-4.54 2.042.868 1.046-.33 2.299-42.705 44.662l-42.7 42.688 1.602.58c4.995 1.81 6.576 1.977 6.576.693 0-.367 20.15-20.822 44.777-45.455l44.776-45.479c0-.963-2.663-.871-7.786.269m20.703.903c.263 1.046-89.582 91.865-93.04 94.048-1.355.855-1.072 1.244 2.67 3.664 2.805 1.814 2.86 1.821 3.152.425.397-1.903 94.47-95.619 95.994-95.63l1.2-.009-.982-.755c-.947-.728-5.15-2.095-7.916-2.575-1.286-.223-1.326-.192-1.07.832m-47.146.422c0 .916-6.863 7.953-42.985 44.082l-42.985 43.487c0 .62.898.612 5.313-.052l3.523-.53 42.317-42.316 42.813-43.242c.657-1.228.47-1.354-2.913-1.96-4.55-.814-5.083-.758-5.083.531m60.895 4.051c.548.446 1.25.815 1.56.82.724.011.543-.138-1.16-.96l-1.393-.671.995.811m2.786 2.494c0 1.851-95.38 97.439-97.227 97.439-1.465 0-1.075.755 2.875 5.569 2.9 3.535 3.954 4.374 2.586 2.058-.585-.991-.622-1.371-.224-2.332.636-1.536 97.567-98.429 98.467-98.429.384 0 1.046.217 1.47.482 1.395.871 1.386-.075-.012-1.277-4.536-3.897-7.936-5.401-7.936-3.51m12.608 8.384c.443.493.93 1.244 1.082 1.671.47 1.317-99.85 101.433-101.35 101.146-1.443-.276-1.425.298.136 4.347 1.218 3.162 2.35 4.988 2.35 3.788 0-.694 101.678-102.533 103.145-103.309 1-.528 1.165-.47 3.103 1.072 3.854 3.069 2.68 1.113-2.742-4.563-3.06-3.204-8.277-6.988-5.724-4.152m12.702 14.528c-.786 1.48-106.564 107.164-107.26 107.164-.303 0-.788-.314-1.08-.697-.45-.594-.53-.102-.54 3.341-.074 23.622-11.153 42.432-30.72 52.154-30.296 15.054-68.002-1.414-77.095-33.672-.458-1.625-1.02-3.142-1.25-3.372-.292-.291-16.32 15.477-53.046 52.186L39.31 315.84c-1.426.344-1.062 1.046 2.444 4.716 17.466 18.283 37.574 25.918 56.752 21.549 23.824-5.426 47.488 5.074 50.42 22.373 1.177 6.947-1.873 14.406-8.79 21.501-3.94 4.041-4.007 3.95 4.706 6.433 36.664 10.447 69.098 2.793 84.408-19.92 10.396-15.423 22.593-23.63 36.423-24.509 14.756-.937 23.703 7.981 24.366 24.29.264 6.498.18 6.41 4.148 4.422 18.746-9.394 35.656-25.136 44.23-41.173 6.142-11.488 7.725-22.751 5.015-35.659-7.998-38.087 19.663-64.33 43.833-41.585 3.863 3.635 4.1 3.619 5.354-.384 3.703-11.722 4.968-19.456 5.272-32.241.663-27.884-6.646-44.679-24.756-56.884-32.543-21.934-31.874-58.85 1.095-60.393 4.62-.216 5.074-.305 5.074-.987 0-2.726-12.618-22.613-14.35-22.613-.196 0-.618.493-.938 1.095M8.42 136.418c-3.415 6.525-8.166 36.318-5.79 36.318.955 0 25.44-24.414 25.077-25.003-.142-.229-1.285-.711-2.54-1.07-4.157-1.191-8.94-4.346-13.213-8.717-2.314-2.366-2.95-2.642-3.534-1.528m41.825.492c-.757 1.212-.634 1.7.302 1.199.438-.234.796-.777.796-1.208 0-1.002-.47-.998-1.098.009m-5.417 6.184c-.2.494-.088.528.554.185.923-.494 1-.791.233-.791-.305 0-.66.272-.787.606m-7.383 3.809c-.748.299-.856.491-.487.861.52.521 1.67.035 1.957-.827.184-.552-.155-.56-1.47-.034m-6.693 1.442c.605.092 1.5.089 2-.005s-.006-.169-1.1-.166-1.495.08-.9.171m142.327 1.293c-.537.448-.716.789-.416.797.75.018 2.063-.742 2.063-1.195 0-.604-.625-.453-1.647.398m52.792.014c.135.219.514.398.843.398s.486-.179.35-.398-.515-.398-.843-.398-.487.179-.35.398m-55.125 1.264c-.655.276-.81.487-.458.618.295.11.826-.089 1.18-.443.735-.735.656-.754-.722-.175m-5.094 3.193c-1.205 1.205-.215 1.486 1.17.332.9-.75.905-.783.123-.796-.448-.007-1.03.202-1.293.464m-9.765 9.738c-.596.596-.292 1.447.332.929.328-.272.597-.653.597-.845 0-.412-.55-.462-.93-.084m92.263 7.198c.617 1.273 1.004 1.635 1.004.939 0-.194-.367-.776-.815-1.293l-.816-.94.627 1.294m-97.014.34c-.16.159-.3.565-.3.9 0 .448.118.493.443.168.243-.244.374-.649.3-.901s-.283-.327-.443-.167m-63.67 73.69l-58.32 57.811c-1.517 0-.298 2.307 3.63 6.869 2.164 2.512 2.82 2.726 1.5.488-.465-.788-.845-1.646-.845-1.907 0-.604 109.496-110.127 110.1-110.127 1.21 0 2.988-8.986 2.067-10.458-.202-.324-19.73 18.932-58.134 57.324M40.2 239.142c0 .185.358.661.796 1.057.904.818 1.2-.033.318-.915-.554-.555-1.114-.626-1.114-.142m9.793 34.525c-.32.834-.305.96.115.96.497 0 .876-1.124.465-1.378-.187-.115-.448.073-.58.418m-5.83 9.348c-.405.756-.372.789.384.384.85-.454 1.125-1.21.442-1.21-.21 0-.583.372-.826.826m-12.31 5.527c-.502.317-.488.408.1.633.817.314 1.88-.029 1.88-.605 0-.509-1.192-.526-1.98-.028m-11.155 1.225c0 1.091 1.487 3.949 2.196 4.221.613.235 4.528-3.664 4.555-4.535.01-.36-.92-.498-3.368-.498-3.14 0-3.383.059-3.383.812" fill="#000000"/></svg>