<svg xmlns="http://www.w3.org/2000/svg" width="285.333341836929" height="288.000008583069" viewBox="0 0 214 216" preserveAspectRatio="xMidYMid meet" fill="#fff" xmlns:v="https://vecta.io/nano"><path d="M100.2 8.2c-7.4 9.9-13 20.4-16.8 31.3-2.6 7.2-2.8 9.3-2.8 21.5s.2 14.3 2.8 21.5c1.5 4.4 4.5 11.3 6.7 15.3 4.7 8.8 15.7 23.4 17.3 22.9 2.2-.7 12.7-15.4 17-23.7 6.2-12 8.7-20.7 9.3-32.5.8-15.7-2.9-29.4-12.4-45.5-4.3-7.2-13.2-19-14.4-19-.3 0-3.4 3.7-6.7 8.2zm-54.7 10c-.8 2.4-2.5 18.3-2.5 23.9 0 11.2 0 11.2 10.4 14.3 5.1 1.5 11.5 4 14.3 5.5l5 2.8.6-8.7c.4-4.8 1.6-11.6 2.7-15.1s2-7.1 2-8c0-1.8-11.2-8.5-21.6-12.9-7.6-3.2-10.2-3.7-10.9-1.8zm115.2.3c-4.3 1.6-20.2 9.9-23.1 12-1.8 1.4-1.8 1.6.4 9.7 1.2 4.6 2.5 11.9 2.8 16.4l.5 8 7.1-3.5c3.9-2 10.3-4.4 14.3-5.4 5.6-1.5 7.2-2.4 7.7-4 .9-3.6.6-17.6-.7-26.2-1.3-9-2.1-9.6-9-7zM17 59.6c-1.9.2-6.6.9-10.3 1.5-7.9 1.3-7.7.3-1.7 14.1 3.9 9.1 10.3 19.4 16.5 26.6C34.2 116.5 57 126 79.5 126c9.4 0 19.5-1.1 19.5-2.1 0-.4-2.6-4.3-5.9-8.6-7.2-9.5-13-21-16.6-32.6-3-9.6-3.6-10.3-14-15.4C50.1 61 32.9 58.2 17 59.6zm159.1.5c-9.7 1.2-19.1 4.2-27.7 8.8-7.5 4.1-8.2 5-11.4 15.6-2.9 9.5-9 21.6-15.3 29.9l-6.2 8.2c-.5.7-.7 1.6-.4 1.9.4.3 5.8.8 12.1 1.2 19.1 1 36.4-2.7 49.3-10.5 8.7-5.2 20.1-17.2 26.2-27.7 4.9-8.2 11.9-24.2 11-25.1-2.1-2.1-27.1-3.6-37.6-2.3zM100 176v40h14v-80h-14v40zm-66-33.5c-.8.2-4.1.7-7.2 1-6.6.7-6.8 1.1-3.7 8 12.6 28.6 31.4 38.9 63.6 34.9l5.1-.6-1.9-4.5c-7.6-17.8-15.1-26.8-27.4-33.1-7.5-3.7-23.3-6.9-28.5-5.7zm133.5.5c-18.3 2.5-32.7 14-41.5 33.4-3.6 7.9-3.7 9.2-.7 9.9 6.2 1.6 17.7 1.7 25.2.4 14.8-2.7 25.4-9.8 33.8-22.5 5.1-7.6 10-18.9 8.7-19.7-1-.6-16.7-2.6-18.5-2.4-.5.1-3.7.5-7 .9z"/></svg>