<svg xmlns="http://www.w3.org/2000/svg" width="344.000010251999" height="288.000008583069" viewBox="0 0 258 216" fill="#ffffff" xmlns:v="https://vecta.io/nano"><path d="M8.1 1.3c-1.9.7-4.4 2.5-5.5 4-2 2.7-2.1 4-2 24L.8 81v26l-.1 25.2V158l-.1 27.3-.1 22.9 3.7 3.4L8 215h50.7c48.5 0 50.9-.1 54-2 5.3-3.2 5.4-4 5-29.8l-.4-25-.1-51c0-.9.3-12.1.6-24.7l.7-23h108l.5 74.2.5 74.3 3.2 3.2c2.9 2.8 4 3.3 9.8 3.6 7.4.5 11.6-.8 14.5-4.6 2-2.4 2-4.6 2-102.6 0-111.2.5-103.2-6.6-106.2-4.6-1.9-236.9-2-242.3-.1zm99.3 58.3c1.4.5 1.6 3.4 1.6 21.5V102H10V60l30.8-.3 47.9-.5c9.4-.1 17.8.1 18.7.4zm1.4 73.1l-.3 20.8-49.2.3-49.3.2v-42h99l-.2 20.7zm-.3 51.8v21l-49.2.3-49.3.2v-20.8c0-11.5.3-21.2.7-21.5.3-.4 22.5-.6 49.2-.5l48.6.3v21zM47 76.7c-3.3 1.3-4 5.2-1.4 7.7 1.2 1.3 3.9 1.6 13.2 1.6C71.3 86 75 84.9 75 81c0-3.8-3.7-5-15.5-4.9-6 0-11.7.3-12.5.6zm-1.2 52.4c-2.1 1.2-2.4 4.9-.6 6.7 1.7 1.7 26.9 1.7 28.6 0s1.5-4.4-.4-6.2c-1.2-1.3-4-1.6-13.7-1.6-6.7 0-13 .5-13.9 1.1zm-.6 52.1c-1.5 1.5-1.5 5.1 0 6.6.8.8 5.5 1.2 14.5 1.2 12.1 0 13.3-.2 14.3-1.9 1.4-2.7 1.3-3.7-.6-5.5-1.2-1.3-4-1.6-14.3-1.6-8.5 0-13.1.4-13.9 1.2z"/></svg>