<svg xmlns="http://www.w3.org/2000/svg" width="1em" height="1em" viewBox="0 0 16 16" fill="currentColor" xmlns:v="https://vecta.io/nano"><path d="M9.812 1.952a.5.5 0 0 1-.312.89c-1.67 0-2.852.596-3.616 1.185L4.857 5.073V6.2a.5.5 0 0 1-.146.354l-1.286 1.29a.5.5 0 0 1-.708 0l-2.57-2.58a.5.5 0 0 1 0-.706l1.286-1.3a.5.5 0 0 1 .354-.146H2.84C4.505 1.228 6.216.862 7.557 1.04a5.009 5.009 0 0 1 2.077.782l.178.13z"/><path fill-rule="evenodd" d="M6.012 3.5a.5.5 0 0 1 .359.165l9.146 8.646A.5.5 0 0 1 15.5 13L14 14.5a.5.5 0 0 1-.756-.056L4.598 5.297a.5.5 0 0 1 .048-.65l1-1a.5.5 0 0 1 .366-.147z"/></svg>