<svg xmlns="http://www.w3.org/2000/svg" width="800.000023841858" height="800.000023841858" viewBox="0 0 600 600" preserveAspectRatio="xMidYMid meet" fill="#fff" xmlns:v="https://vecta.io/nano"><path d="M242.1.9l-16.4.6 5.4 1.9c14.4 5.1 27.7 13.7 39.6 25.8 15.8 16 20.8 23.9 55.6 88.1l26.5 48.7-8.1 5.3-19.1 12.2-10.9 7 11.4.6c6.3.4 37.5.8 69.3.9l57.9.2 36-59.4 36.5-60.7c.3-.8-9.2 3.6-21.2 9.8s-21.9 11.1-22 10.9c-.2-.1-8.1-14.6-17.6-32-13.7-25.4-18.4-33-23.2-38.2-7.1-7.8-17.3-14.8-27.7-19L406.5.5l-74-.1-90.4.5zm-48.8 6.6c-6 1.9-15.1 7-19.5 10.8-4.5 4-72.4 108.6-71.2 109.7.5.4 29.8 17.9 65.2 38.8l64.3 38.1 2.3-3.7c7.8-12 66.6-108.6 66.6-109.4 0-3-13.9-26.6-22.7-38.6-6.9-9.3-21.8-24.9-29.6-30.9S227.8 9.5 220.4 7.6s-21.2-1.9-27.1-.1zm283 225.9l-64.2 40c-.1.5 13.9 26.9 31.1 58.7l31.2 57.9h13.4c32.2 0 61.8-6.8 82.5-19.1 9.6-5.6 20.5-16.6 24.5-24.7 4.3-8.7 5.6-15.8 4.9-27.7l-.5-10-28.7-56.5-29.4-57.1c-.3-.4-29.5 17-64.8 38.5zm-431-36.7c-23.3.2-42.3.7-42.3 1.1.1.4 9 7.6 19.9 16.1l19.7 15.3-18.8 36.2C-.3 311.6-.3 311.6.2 323.9c.3 7.5.9 11 3 15.9 7.3 17.6 25.7 35.3 44.1 42.6 14.6 5.8 39.6 9.1 63.5 8.4l11.4-.3 25.4-41.5 26.3-42.9c.7-1.1 5.1.9 20.6 9.3 10.9 5.9 20 10.5 20.2 10.2.2-.2-15.2-29.5-34.4-65L145.5 196l-29 .3-71.2.4zm303.5 218.2L315 476.3c0 1.4 67.1 123.2 68 123.5.6.2 1-3.3 1-9.1 0-5.1.3-16.2.7-24.5l.6-15.2h35.6c40.3 0 44.5-.5 57.6-6.9 10.8-5.2 19.6-12 25.1-19.5 4.6-6.2 85.6-156.7 84.8-157.5-.2-.2-3 1.8-6.1 4.6-15.9 13.6-33.4 21.4-58.8 26-7.6 1.4-19.3 1.7-73.1 2l-64.1.4-.6-7.3c-.4-4-1-14.4-1.3-23.1-.4-8.6-1-15.7-1.3-15.7s-15.8 27.4-34.3 60.9zM9.3 366.2c1.4 4.1 86.1 159.5 88 161.7 4.8 5.2 15.3 12.2 22.9 15.1 20.3 7.8 33.3 9 100.4 9H271V400l-11.7-.1-98.8-.9c-76.8-.7-87.9-.9-94.5-2.5-21.3-4.8-37.3-13.2-52.4-27.4-2.7-2.5-4.6-3.8-4.3-2.9z"/></svg>